# xmcd
#
# Track frame offsets: 
#        150
#        18996
#        40698
#        64049
#        76749
#        102754
#        120558
#        137773
#        159686
#        179103
#        197319
#        216245
#
# Disc length: 3025 seconds
#
# Revision: 4
# Processed by: cddbd v1.5.2PL0 Copyright (c) Steve Scherf et al.
# Submitted via: ExactAudioCopyFreeDBPlugin 1.0
#
DISCID=9b0bcf0c,a10bcf0c
DTITLE=Chris Farlowe - Glory Bound
DYEAR=2000
DGENRE=Blues
TTITLE0=Wide Open
TTITLE1=Blues As Blues Can Get
TTITLE2=Miss You Fever
TTITLE3=Don't Wanna Live Without You
TTITLE4=Shaky Ground
TTITLE5=Glory Bound
TTITLE6=Don't Think I Will
TTITLE7=My Best Friends Girl
TTITLE8=Tough On Me Tough On You
TTITLE9=Gangster Of Love
TTITLE10=Cry To Me
TTITLE11=I Think It's Gonna Rain Today
EXTD=
EXTT0=
EXTT1=
EXTT2=
EXTT3=
EXTT4=
EXTT5=
EXTT6=
EXTT7=
EXTT8=
EXTT9=
EXTT10=
EXTT11=
PLAYORDER=
